<svg width="22" height="22" viewBox="0 0 22 22" fill="none" xmlns="http://www.w3.org/2000/svg">
<path d="M8.39666 9.96415C8.30499 9.95498 8.19499 9.95498 8.09416 9.96415C5.91249 9.89081 4.17999 8.10331 4.17999 5.90331C4.17999 3.65748 5.99499 1.83331 8.24999 1.83331C10.4958 1.83331 12.32 3.65748 12.32 5.90331C12.3108 8.10331 10.5783 9.89081 8.39666 9.96415Z" stroke="#7E7E8F" stroke-width="1.5" stroke-linecap="round" stroke-linejoin="round"/>
<path d="M15.0425 3.66669C16.8208 3.66669 18.2508 5.10585 18.2508 6.87502C18.2508 8.60752 16.8758 10.0192 15.1617 10.0834C15.0883 10.0742 15.0058 10.0742 14.9233 10.0834" stroke="#7E7E8F" stroke-width="1.5" stroke-linecap="round" stroke-linejoin="round"/>
<path d="M3.81335 13.3467C1.59501 14.8317 1.59501 17.2517 3.81335 18.7275C6.33418 20.4142 10.4683 20.4142 12.9892 18.7275C15.2075 17.2425 15.2075 14.8225 12.9892 13.3467C10.4775 11.6692 6.34335 11.6692 3.81335 13.3467Z" stroke="#7E7E8F" stroke-width="1.5" stroke-linecap="round" stroke-linejoin="round"/>
<path d="M16.8116 18.3333C17.4716 18.1958 18.095 17.93 18.6083 17.5358C20.0383 16.4633 20.0383 14.6941 18.6083 13.6216C18.1041 13.2366 17.49 12.98 16.8391 12.8333" stroke="#7E7E8F" stroke-width="1.5" stroke-linecap="round" stroke-linejoin="round"/>
</svg>
