<svg width="22" height="22" viewBox="0 0 22 22" fill="none" xmlns="http://www.w3.org/2000/svg">
<path d="M8.25 20.1666H13.75C18.3333 20.1666 20.1667 18.3333 20.1667 13.75V8.24998C20.1667 3.66665 18.3333 1.83331 13.75 1.83331H8.25C3.66667 1.83331 1.83333 3.66665 1.83333 8.24998V13.75C1.83333 18.3333 3.66667 20.1666 8.25 20.1666Z" stroke="#F1F1F1" stroke-width="1.5" stroke-linecap="round" stroke-linejoin="round"/>
<path d="M8.25 9.16667C9.26252 9.16667 10.0833 8.34586 10.0833 7.33333C10.0833 6.32081 9.26252 5.5 8.25 5.5C7.23748 5.5 6.41667 6.32081 6.41667 7.33333C6.41667 8.34586 7.23748 9.16667 8.25 9.16667Z" stroke="#F1F1F1" stroke-width="1.5" stroke-linecap="round" stroke-linejoin="round"/>
<path d="M2.4475 17.3708L6.96666 14.3366C7.69083 13.8508 8.73583 13.9058 9.38666 14.465L9.68916 14.7308C10.4042 15.345 11.5592 15.345 12.2742 14.7308L16.0875 11.4583C16.8025 10.8441 17.9575 10.8441 18.6725 11.4583L20.1667 12.7416" stroke="#F1F1F1" stroke-width="1.5" stroke-linecap="round" stroke-linejoin="round"/>
</svg>
